<?xml version="1.0" standalone="no"?>
<!DOCTYPE svg PUBLIC "-//W3C//DTD SVG 20010904//EN"
 "http://www.w3.org/TR/2001/REC-SVG-20010904/DTD/svg10.dtd">
<svg version="1.0" xmlns="http://www.w3.org/2000/svg"
 width="500.000000pt" height="500.000000pt" viewBox="0 0 500.000000 500.000000"
 preserveAspectRatio="xMidYMid meet">

<g transform="translate(0.000000,500.000000) scale(0.100000,-0.100000)"
fill="#000000" stroke="none">
<path d="M2360 3475 c-74 -74 -138 -135 -142 -135 -5 0 -8 36 -8 80 0 78 -1
80 -27 86 -44 11 -53 -14 -53 -145 l0 -115 -114 -115 c-100 -102 -114 -120
-111 -146 4 -32 28 -55 59 -55 13 0 112 91 278 257 l258 257 258 -257 c176
-175 265 -257 279 -257 31 0 53 26 53 63 0 28 -34 65 -292 324 -161 161 -295
293 -298 293 -3 0 -66 -61 -140 -135z"/>
<path d="M2265 3096 l-230 -231 -5 -258 -5 -257 262 0 263 0 2 218 3 217 138
3 137 3 0 -221 0 -220 73 0 72 0 -3 257 -3 258 -232 233 c-127 127 -234 231
-237 230 -3 -1 -108 -105 -235 -232z m155 -411 l0 -105 -125 0 -125 0 0 105 0
105 125 0 125 0 0 -105z"/>
<path d="M3397 2430 c-18 -40 -35 -64 -92 -126 -22 -24 -45 -49 -51 -56 -6 -7
-30 -29 -54 -48 -24 -19 -57 -47 -74 -61 -45 -37 -85 -64 -141 -94 -315 -169
-686 -174 -1014 -13 -140 69 -186 100 -289 196 -50 46 -92 66 -92 44 0 -12 32
-56 47 -65 7 -5 11 -12 8 -18 -4 -5 -2 -9 4 -9 6 0 32 -20 58 -45 294 -280
771 -369 1158 -216 57 23 220 109 240 127 13 12 38 32 57 45 44 31 176 167
194 202 8 15 18 27 22 27 5 0 14 16 21 35 7 21 17 33 23 29 7 -5 9 -1 5 9 -3
10 -2 17 2 17 5 0 14 13 19 30 10 28 9 30 -12 28 -16 -2 -28 -13 -39 -38z"/>
<path d="M870 1411 l0 -151 40 0 40 0 0 60 c0 33 3 60 8 60 4 0 21 -26 38 -58
29 -54 32 -57 73 -60 l43 -3 -33 62 c-26 47 -31 63 -20 67 53 19 68 92 27 139
-23 26 -29 28 -120 31 l-96 4 0 -151z m148 80 c8 -4 12 -19 10 -32 -2 -20 -10
-25 -40 -27 -37 -3 -38 -3 -38 32 0 33 3 36 28 36 15 0 33 -4 40 -9z"/>
<path d="M1246 1534 c-52 -53 -31 -104 61 -145 48 -22 64 -33 61 -46 -4 -23
-41 -28 -58 -8 -13 16 -90 22 -90 6 0 -5 12 -23 26 -40 63 -75 204 -36 204 57
0 25 -36 57 -91 80 -56 24 -67 39 -45 60 14 14 17 14 34 -1 24 -22 92 -23 92
-2 0 9 -11 27 -25 40 -20 21 -34 25 -83 25 -51 0 -63 -4 -86 -26z"/>
<path d="M1560 1410 l0 -150 40 0 40 0 0 55 0 55 40 0 c96 0 138 62 98 146
-15 33 -51 44 -138 44 l-80 0 0 -150z m150 75 c6 -8 9 -23 5 -35 -5 -15 -15
-20 -41 -20 -32 0 -34 2 -34 35 0 32 3 35 29 35 16 0 34 -7 41 -15z"/>
<path d="M2060 1411 l0 -151 35 0 35 0 0 87 c0 47 3 83 8 79 4 -4 19 -42 33
-84 25 -75 26 -77 59 -77 33 0 34 2 59 77 14 42 29 80 34 84 4 4 7 -32 7 -79
l0 -87 35 0 35 0 0 151 0 150 -46 -3 -47 -3 -35 -92 c-19 -51 -38 -93 -42 -93
-3 0 -22 42 -42 93 l-35 92 -46 3 -47 3 0 -150z"/>
<path d="M2609 1533 c-21 -55 -99 -267 -99 -270 0 -2 18 -3 40 -3 34 0 41 4
46 25 6 23 11 25 65 25 54 0 60 -2 69 -25 8 -21 16 -25 50 -25 39 0 39 0 29
28 -6 15 -28 74 -49 132 -21 58 -41 113 -45 123 -5 12 -19 17 -51 17 -39 0
-46 -3 -55 -27z m85 -140 c7 -21 4 -23 -29 -23 -34 0 -37 2 -31 25 3 13 11 37
17 52 l11 28 13 -30 c7 -16 16 -40 19 -52z"/>
<path d="M3040 1450 c0 -90 -3 -112 -15 -117 -9 -3 -24 2 -34 11 -10 9 -32 16
-49 16 -26 0 -32 -4 -32 -20 0 -53 91 -94 151 -69 46 18 59 60 59 184 l0 105
-40 0 -40 0 0 -110z"/>
<path d="M3240 1410 l0 -150 95 0 95 0 0 30 c0 30 -1 30 -55 30 l-55 0 0 35 0
35 50 0 c47 0 50 2 50 25 0 23 -3 25 -50 25 -49 0 -50 1 -50 30 0 30 1 30 55
30 54 0 55 0 55 30 l0 30 -95 0 -95 0 0 -150z"/>
<path d="M3550 1410 l0 -150 35 0 35 0 0 85 c0 47 3 85 8 85 4 0 32 -38 62
-85 53 -81 56 -85 93 -85 l37 0 0 150 0 150 -40 0 -40 0 0 -87 0 -88 -58 87
c-55 84 -58 88 -94 88 l-38 0 0 -150z"/>
<path d="M3950 1410 l0 -150 90 0 90 0 0 30 c0 30 -1 30 -55 30 l-55 0 0 35 0
35 50 0 c47 0 50 2 50 25 0 23 -3 25 -50 25 -49 0 -50 1 -50 30 0 30 1 30 55
30 54 0 55 0 55 30 l0 30 -90 0 -90 0 0 -150z"/>
<path d="M591 993 c1 -46 3 -58 8 -39 8 41 27 43 46 6 9 -18 19 -30 22 -27 2
3 0 15 -6 26 -9 16 -8 26 4 45 14 22 14 25 0 40 -9 9 -30 16 -46 16 l-29 0 1
-67z m67 30 c3 -20 -1 -23 -27 -23 -27 0 -31 4 -31 26 0 22 4 25 28 22 19 -2
28 -9 30 -25z"/>
<path d="M742 1014 c-2 -38 3 -55 16 -67 24 -22 38 -21 62 3 21 21 29 110 10
110 -5 0 -10 -24 -10 -54 0 -56 -12 -72 -45 -60 -16 6 -22 25 -28 84 -3 26 -4
22 -5 -16z"/>
<path d="M902 993 c1 -57 2 -60 5 -20 2 26 8 47 12 47 4 0 16 -21 28 -47 l20
-48 24 50 23 50 6 -50 c7 -49 7 -48 8 20 1 64 0 68 -13 50 -9 -10 -21 -34 -27
-52 -7 -18 -15 -33 -18 -33 -4 0 -17 23 -30 50 -13 28 -27 50 -32 50 -4 0 -7
-30 -6 -67z"/>
<path d="M1129 1033 c-30 -76 -37 -103 -29 -103 6 0 10 7 10 15 0 22 66 20 74
-1 4 -9 9 -15 11 -12 8 7 -36 128 -46 128 -5 0 -14 -12 -20 -27z m36 -35 c6
-25 5 -28 -19 -28 -30 0 -29 -2 -15 39 12 35 24 31 34 -11z"/>
<path d="M1263 995 c0 -38 2 -55 4 -37 4 30 7 32 43 32 36 0 39 -2 43 -32 2
-18 4 -1 4 37 0 39 -2 55 -4 37 -4 -31 -6 -33 -41 -30 -32 3 -38 7 -43 33 -4
19 -6 4 -6 -40z"/>
<path d="M1512 1048 c-21 -21 -13 -38 23 -54 36 -15 46 -40 20 -50 -8 -4 -22
-1 -30 6 -9 7 -18 10 -22 7 -3 -4 6 -12 20 -18 21 -9 30 -9 42 1 26 22 18 49
-20 64 -25 11 -33 19 -29 30 7 19 35 21 53 4 11 -11 13 -10 9 2 -6 19 -49 25
-66 8z"/>
<path d="M1653 995 c0 -38 2 -53 4 -32 2 20 2 52 0 70 -2 17 -4 1 -4 -38z"/>
<path d="M1732 993 l1 -68 6 55 6 55 35 -52 c19 -29 38 -53 43 -53 4 0 7 29 7
65 0 37 -4 65 -10 65 -5 0 -10 -24 -10 -52 l0 -53 -35 53 c-20 28 -38 52 -40
52 -3 0 -4 -30 -3 -67z"/>
<path d="M1907 1042 c-21 -22 -22 -62 -3 -87 18 -25 74 -25 92 0 23 31 17 45
-18 44 -31 -2 -31 -2 -6 -6 24 -4 26 -7 18 -22 -14 -27 -40 -33 -66 -16 -28
18 -32 56 -8 79 17 18 50 21 59 6 3 -5 11 -10 17 -10 7 0 6 6 -2 15 -17 21
-63 19 -83 -3z"/>
<path d="M2085 1040 c-24 -27 -22 -70 5 -92 29 -23 41 -23 74 3 38 30 34 49
-11 48 -32 -2 -33 -3 -10 -6 33 -5 34 -31 1 -44 -55 -20 -92 69 -38 93 20 9
30 9 45 0 26 -16 34 -15 19 3 -18 21 -64 19 -85 -5z"/>
<path d="M2266 1008 c-9 -29 -20 -60 -22 -68 -4 -11 -1 -10 9 3 8 9 27 17 42
17 15 0 34 -8 41 -17 8 -11 4 11 -8 50 -12 37 -27 67 -33 67 -6 0 -19 -24 -29
-52z m48 -15 c6 -20 4 -23 -18 -23 -29 0 -31 7 -14 45 12 27 19 23 32 -22z"/>
<path d="M2413 995 c0 -38 2 -55 4 -37 4 29 7 32 39 32 31 0 34 -2 34 -30 0
-16 5 -30 10 -30 6 0 10 28 10 65 0 37 -4 65 -10 65 -5 0 -10 -13 -10 -30 0
-28 -3 -30 -34 -30 -32 0 -35 3 -39 33 -2 17 -4 1 -4 -38z"/>
<path d="M2652 993 c0 -38 3 -53 5 -35 4 28 8 32 33 32 38 0 57 31 34 54 -8 9
-29 16 -45 16 l-29 0 2 -67z m66 30 c3 -20 -1 -23 -27 -23 -27 0 -31 4 -31 26
0 22 4 25 28 22 19 -2 28 -9 30 -25z"/>
<path d="M2815 1008 c-27 -80 -28 -85 -15 -65 14 22 80 24 80 2 0 -8 4 -15 10
-15 12 0 -34 123 -48 128 -5 1 -18 -21 -27 -50z m55 -34 c0 -2 -11 -4 -25 -4
-28 0 -30 6 -14 47 l11 28 14 -34 c8 -18 14 -35 14 -37z"/>
<path d="M2961 1047 c-16 -20 -5 -41 29 -54 32 -12 40 -40 15 -49 -8 -4 -22
-1 -30 6 -9 8 -15 8 -15 2 0 -14 33 -24 53 -16 38 14 27 57 -18 68 -16 4 -25
13 -25 26 0 23 28 27 49 8 11 -11 13 -10 9 2 -6 20 -52 25 -67 7z"/>
<path d="M3103 995 c0 -38 2 -53 4 -32 2 20 2 52 0 70 -2 17 -4 1 -4 -38z"/>
<path d="M3180 995 l0 -65 33 1 c30 2 30 2 5 6 -22 3 -28 10 -28 28 0 18 6 25
28 28 l27 4 -27 2 c-23 1 -28 6 -28 25 0 19 6 26 28 29 25 4 25 4 -5 6 l-33 1
0 -65z"/>
<path d="M3312 993 c2 -64 2 -65 5 -15 2 28 7 52 11 52 4 0 20 -23 37 -50 16
-28 33 -50 37 -50 4 0 7 30 6 68 l-1 67 -6 -55 -6 -55 -35 52 c-19 29 -38 53
-42 53 -5 0 -7 -30 -6 -67z"/>
<path d="M3550 995 c0 -37 4 -65 10 -65 6 0 10 21 11 48 l0 47 22 -42 c11 -24
24 -43 27 -43 3 0 16 19 27 43 l22 42 0 -47 c1 -27 6 -48 11 -48 6 0 10 28 10
65 0 39 -4 65 -11 65 -5 0 -19 -22 -31 -50 -11 -27 -24 -50 -28 -50 -4 0 -17
23 -28 50 -12 28 -26 50 -31 50 -7 0 -11 -26 -11 -65z"/>
<path d="M3771 1005 c-22 -59 -27 -92 -10 -62 6 10 22 17 39 17 17 0 33 -7 39
-17 18 -31 12 3 -10 61 -12 31 -25 56 -30 56 -4 0 -17 -25 -28 -55z m43 13
c10 -39 7 -48 -18 -48 -23 0 -24 2 -13 35 12 40 22 44 31 13z"/>
<path d="M3960 1007 c0 -62 -5 -70 -34 -55 -20 10 -20 10 -3 -8 29 -31 51 -7
55 60 2 34 -1 56 -8 56 -6 0 -10 -23 -10 -53z"/>
<path d="M4050 995 l0 -65 38 1 c36 1 36 2 7 8 -21 4 -31 13 -33 29 -3 18 2
22 25 23 28 1 28 1 3 8 -15 4 -26 15 -28 28 -3 18 3 22 30 26 l33 4 -37 1 -38
2 0 -65z"/>
<path d="M4182 993 c2 -64 2 -65 5 -15 2 28 7 52 11 52 4 0 20 -23 37 -50 16
-28 33 -50 37 -50 4 0 7 30 6 68 l-1 67 -6 -55 -6 -55 -35 52 c-19 29 -38 53
-42 53 -5 0 -7 -30 -6 -67z"/>
<path d="M4350 995 l0 -65 33 1 c30 2 30 2 5 6 -22 3 -28 10 -28 28 0 18 6 25
28 28 l27 4 -27 2 c-23 1 -28 6 -28 25 0 19 6 26 28 29 25 4 25 4 -5 6 l-33 1
0 -65z"/>
</g>
</svg>
